<svg width="117" height="119" viewBox="0 0 117 119" fill="none" xmlns="http://www.w3.org/2000/svg">
<path d="M60.928 118.528C52.0533 118.528 43.8613 117.077 36.352 114.176C28.928 111.275 22.4853 107.179 17.024 101.888C11.648 96.5974 7.46666 90.3254 4.48 83.072C1.49333 75.8187 -4.29153e-06 67.8827 -4.29153e-06 59.264C-4.29153e-06 50.56 1.49333 42.624 4.48 35.456C7.46666 28.2027 11.648 21.9307 17.024 16.64C22.4853 11.3493 28.928 7.25335 36.352 4.35201C43.8613 1.45068 52.0533 1.52588e-05 60.928 1.52588e-05C69.12 1.52588e-05 76.6293 1.45068 83.456 4.35201C90.2827 7.25335 96.1707 11.3493 101.12 16.64C106.155 21.9307 109.995 28.2027 112.64 35.456C115.371 42.624 116.736 50.56 116.736 59.264H105.472C105.472 52.1814 104.363 45.696 102.144 39.808C100.011 33.92 96.9387 28.8 92.928 24.448C89.0027 20.096 84.3093 16.768 78.848 14.464C73.472 12.0747 67.4987 10.88 60.928 10.88C53.6747 10.88 47.0187 12.0747 40.96 14.464C34.9013 16.768 29.6533 20.096 25.216 24.448C20.7787 28.7147 17.3227 33.8347 14.848 39.808C12.4587 45.696 11.264 52.1814 11.264 59.264C11.264 66.3467 12.4587 72.832 14.848 78.72C17.3227 84.608 20.7787 89.6854 25.216 93.952C29.6533 98.304 34.9013 101.675 40.96 104.064C47.0187 106.453 53.6747 107.648 60.928 107.648C64.0853 107.648 67.456 107.179 71.04 106.24C74.7093 105.387 77.7813 104.277 80.256 102.912L86.144 111.616C82.56 113.664 78.4213 115.328 73.728 116.608C69.0347 117.888 64.768 118.528 60.928 118.528ZM53.76 89.6C48.384 89.6 43.6053 88.32 39.424 85.76C35.328 83.1147 32.128 79.488 29.824 74.88C27.52 70.272 26.368 65.024 26.368 59.136C26.368 53.1627 27.52 47.9147 29.824 43.392C32.128 38.8694 35.328 35.328 39.424 32.768C43.6053 30.1227 48.384 28.8 53.76 28.8C59.136 28.8 63.872 30.1227 67.968 32.768C72.1493 35.328 75.392 38.8694 77.696 43.392C80.0853 47.9147 81.28 53.1627 81.28 59.136C81.28 65.024 80.0853 70.272 77.696 74.88C75.392 79.488 72.1493 83.1147 67.968 85.76C63.872 88.32 59.136 89.6 53.76 89.6ZM57.728 77.44C61.056 77.44 64 76.672 66.56 75.136C69.12 73.6 71.1253 71.4667 72.576 68.736C74.0267 65.92 74.752 62.7627 74.752 59.264C74.752 55.5947 73.984 52.4374 72.448 49.792C70.9973 47.0614 68.9493 44.928 66.304 43.392C63.744 41.7707 60.7573 40.96 57.344 40.96C53.9307 40.96 50.944 41.7707 48.384 43.392C45.824 44.928 43.776 47.0614 42.24 49.792C40.7893 52.4374 40.064 55.552 40.064 59.136C40.064 62.6347 40.832 65.792 42.368 68.608C43.904 71.424 45.9947 73.6 48.64 75.136C51.2853 76.672 54.3147 77.44 57.728 77.44ZM91.264 93.44C88.0213 93.44 85.12 92.8 82.56 91.52C80.0853 90.24 78.1653 88.4054 76.8 86.016C75.4347 83.6267 74.752 80.8107 74.752 77.568L86.656 77.056C86.656 79.1894 87.168 80.768 88.192 81.792C89.216 82.816 90.5387 83.328 92.16 83.328C94.8053 83.328 97.1093 82.304 99.072 80.256C101.12 78.208 102.699 75.392 103.808 71.808C104.917 68.1387 105.472 63.9574 105.472 59.264H116.736C116.736 65.92 115.627 71.808 113.408 76.928C111.275 82.048 108.288 86.1014 104.448 89.088C100.608 91.9894 96.2133 93.44 91.264 93.44ZM74.752 77.568L74.112 30.208H86.656V77.056L74.752 77.568Z" fill="white"/>
</svg>
