<svg width="1332" height="300" viewBox="0 0 1332 300" fill="none" xmlns="http://www.w3.org/2000/svg">
<path d="M0 40C0 17.9086 17.9086 0 40 0H1292C1314.09 0 1332 17.9086 1332 40V260C1332 282.091 1314.09 300 1292 300H40C17.9086 300 0 282.091 0 260V40Z" fill="#DEDEDE"/>
<path d="M310.936 190V97.84H327.576V190H310.936ZM344.076 190V124.72H359.82V140.08H360.204V190H344.076ZM389.9 190V148.784C389.9 144.773 388.876 141.744 386.828 139.696C384.78 137.648 381.793 136.624 377.868 136.624C374.455 136.624 371.383 137.392 368.652 138.928C366.007 140.464 363.916 142.597 362.38 145.328C360.929 148.059 360.204 151.216 360.204 154.8L358.54 139.184C360.759 134.405 364.001 130.608 368.268 127.792C372.535 124.891 377.655 123.44 383.628 123.44C390.711 123.44 396.215 125.445 400.14 129.456C404.151 133.467 406.156 138.8 406.156 145.456V190H389.9ZM449.388 191.28C441.367 191.28 435.436 189.403 431.596 185.648C427.841 181.808 425.964 176.091 425.964 168.496V109.872L442.22 103.856V168.88C442.22 172.037 443.073 174.384 444.78 175.92C446.487 177.456 449.175 178.224 452.844 178.224C454.295 178.224 455.575 178.139 456.684 177.968C457.879 177.712 458.988 177.413 460.012 177.072V189.616C458.988 190.128 457.537 190.512 455.66 190.768C453.783 191.109 451.692 191.28 449.388 191.28ZM413.42 137.392V124.72H460.012V137.392H413.42ZM499.388 191.28C492.476 191.28 486.417 189.829 481.212 186.928C476.092 184.027 472.081 180.016 469.18 174.896C466.364 169.776 464.956 163.888 464.956 157.232C464.956 150.576 466.364 144.731 469.18 139.696C472.081 134.576 476.092 130.608 481.212 127.792C486.332 124.891 492.305 123.44 499.132 123.44C505.617 123.44 511.249 124.805 516.028 127.536C520.807 130.181 524.519 133.936 527.164 138.8C529.809 143.664 531.132 149.339 531.132 155.824C531.132 157.019 531.089 158.128 531.004 159.152C530.919 160.176 530.791 161.2 530.62 162.224H474.94V150.96H518.204L514.876 154.032C514.876 147.888 513.468 143.28 510.652 140.208C507.836 137.136 503.911 135.6 498.876 135.6C493.415 135.6 489.063 137.477 485.82 141.232C482.663 144.987 481.084 150.405 481.084 157.488C481.084 164.485 482.663 169.861 485.82 173.616C489.063 177.285 493.628 179.12 499.516 179.12C502.929 179.12 505.916 178.48 508.476 177.2C511.036 175.92 512.913 173.957 514.108 171.312H529.34C527.207 177.456 523.58 182.32 518.46 185.904C513.425 189.488 507.068 191.28 499.388 191.28ZM543.201 190V124.72H558.945V140.464H559.329V190H543.201ZM559.329 155.952L557.665 140.464C559.201 134.917 561.804 130.693 565.473 127.792C569.142 124.891 573.537 123.44 578.657 123.44C580.449 123.44 581.729 123.611 582.497 123.952V139.184C582.07 139.013 581.473 138.928 580.705 138.928C579.937 138.843 578.998 138.8 577.889 138.8C571.66 138.8 567.009 140.165 563.937 142.896C560.865 145.627 559.329 149.979 559.329 155.952ZM593.076 190V124.72H608.82V140.08H609.204V190H593.076ZM638.9 190V148.784C638.9 144.773 637.876 141.744 635.828 139.696C633.78 137.648 630.793 136.624 626.868 136.624C623.455 136.624 620.383 137.392 617.652 138.928C615.007 140.464 612.916 142.597 611.38 145.328C609.929 148.059 609.204 151.216 609.204 154.8L607.54 139.184C609.759 134.405 613.001 130.608 617.268 127.792C621.535 124.891 626.655 123.44 632.628 123.44C639.711 123.44 645.215 125.445 649.14 129.456C653.151 133.467 655.156 138.8 655.156 145.456V190H638.9ZM700.763 191.28C693.851 191.28 687.792 189.829 682.587 186.928C677.467 184.027 673.456 180.016 670.555 174.896C667.739 169.776 666.331 163.888 666.331 157.232C666.331 150.576 667.739 144.731 670.555 139.696C673.456 134.576 677.467 130.608 682.587 127.792C687.707 124.891 693.68 123.44 700.507 123.44C706.992 123.44 712.624 124.805 717.403 127.536C722.182 130.181 725.894 133.936 728.539 138.8C731.184 143.664 732.507 149.339 732.507 155.824C732.507 157.019 732.464 158.128 732.379 159.152C732.294 160.176 732.166 161.2 731.995 162.224H676.315V150.96H719.579L716.251 154.032C716.251 147.888 714.843 143.28 712.027 140.208C709.211 137.136 705.286 135.6 700.251 135.6C694.79 135.6 690.438 137.477 687.195 141.232C684.038 144.987 682.459 150.405 682.459 157.488C682.459 164.485 684.038 169.861 687.195 173.616C690.438 177.285 695.003 179.12 700.891 179.12C704.304 179.12 707.291 178.48 709.851 177.2C712.411 175.92 714.288 173.957 715.483 171.312H730.715C728.582 177.456 724.955 182.32 719.835 185.904C714.8 189.488 708.443 191.28 700.763 191.28ZM772.513 191.28C764.492 191.28 758.561 189.403 754.721 185.648C750.966 181.808 749.089 176.091 749.089 168.496V109.872L765.345 103.856V168.88C765.345 172.037 766.198 174.384 767.905 175.92C769.612 177.456 772.3 178.224 775.969 178.224C777.42 178.224 778.7 178.139 779.809 177.968C781.004 177.712 782.113 177.413 783.137 177.072V189.616C782.113 190.128 780.662 190.512 778.785 190.768C776.908 191.109 774.817 191.28 772.513 191.28ZM736.545 137.392V124.72H783.137V137.392H736.545ZM819.311 190V97.84H835.951V190H819.311ZM879.599 190V97.84H896.239V190H879.599ZM827.247 135.472H887.151V148.528H827.247V135.472ZM953.405 190C952.978 188.293 952.637 186.416 952.381 184.368C952.21 182.32 952.125 179.845 952.125 176.944H951.613V145.968C951.613 142.555 950.632 139.995 948.669 138.288C946.792 136.496 943.89 135.6 939.965 135.6C936.125 135.6 933.053 136.325 930.749 137.776C928.53 139.141 927.165 141.147 926.653 143.792H911.165C911.848 137.733 914.749 132.827 919.869 129.072C924.989 125.317 931.858 123.44 940.477 123.44C949.437 123.44 956.221 125.488 960.829 129.584C965.437 133.595 967.741 139.525 967.741 147.376V176.944C967.741 178.992 967.869 181.083 968.125 183.216C968.466 185.349 968.936 187.611 969.533 190H953.405ZM930.749 191.28C924.178 191.28 918.93 189.659 915.005 186.416C911.165 183.088 909.245 178.651 909.245 173.104C909.245 167.131 911.421 162.395 915.773 158.896C920.125 155.397 926.269 153.051 934.205 151.856L954.557 148.784V159.024L936.893 161.712C933.053 162.309 930.152 163.376 928.189 164.912C926.312 166.448 925.373 168.581 925.373 171.312C925.373 173.787 926.269 175.707 928.061 177.072C929.853 178.352 932.328 178.992 935.485 178.992C940.093 178.992 943.933 177.84 947.005 175.536C950.077 173.232 951.613 170.416 951.613 167.088L953.405 176.944C951.698 181.637 948.882 185.221 944.957 187.696C941.117 190.085 936.381 191.28 930.749 191.28ZM984.076 190V124.72H999.82V140.08H1000.2V190H984.076ZM1029.9 190V148.784C1029.9 144.773 1028.88 141.744 1026.83 139.696C1024.78 137.648 1021.79 136.624 1017.87 136.624C1014.45 136.624 1011.38 137.392 1008.65 138.928C1006.01 140.464 1003.92 142.597 1002.38 145.328C1000.93 148.059 1000.2 151.216 1000.2 154.8L998.54 139.184C1000.76 134.405 1004 130.608 1008.27 127.792C1012.53 124.891 1017.65 123.44 1023.63 123.44C1030.71 123.44 1036.21 125.445 1040.14 129.456C1044.15 133.467 1046.16 138.8 1046.16 145.456V190H1029.9ZM1109.04 190V175.28L1110.32 175.536C1109.21 180.315 1106.53 184.155 1102.26 187.056C1097.99 189.872 1092.92 191.28 1087.03 191.28C1081.05 191.28 1075.85 189.915 1071.41 187.184C1067.06 184.368 1063.69 180.443 1061.3 175.408C1058.91 170.373 1057.72 164.443 1057.72 157.616C1057.72 150.704 1058.95 144.688 1061.43 139.568C1063.9 134.448 1067.36 130.48 1071.8 127.664C1076.32 124.848 1081.57 123.44 1087.54 123.44C1093.68 123.44 1098.76 124.933 1102.77 127.92C1106.78 130.821 1109.26 134.875 1110.2 140.08L1108.53 140.208V97.84H1124.79V190H1109.04ZM1091.76 178.096C1096.97 178.096 1101.11 176.304 1104.18 172.72C1107.34 169.051 1108.92 163.931 1108.92 157.36C1108.92 150.789 1107.34 145.712 1104.18 142.128C1101.02 138.544 1096.84 136.752 1091.64 136.752C1086.52 136.752 1082.38 138.587 1079.22 142.256C1076.06 145.84 1074.48 150.917 1074.48 157.488C1074.48 164.059 1076.06 169.136 1079.22 172.72C1082.38 176.304 1086.56 178.096 1091.76 178.096ZM1141.95 190V97.84H1158.08V190H1141.95ZM1204.51 191.28C1197.6 191.28 1191.54 189.829 1186.34 186.928C1181.22 184.027 1177.21 180.016 1174.31 174.896C1171.49 169.776 1170.08 163.888 1170.08 157.232C1170.08 150.576 1171.49 144.731 1174.31 139.696C1177.21 134.576 1181.22 130.608 1186.34 127.792C1191.46 124.891 1197.43 123.44 1204.26 123.44C1210.74 123.44 1216.37 124.805 1221.15 127.536C1225.93 130.181 1229.64 133.936 1232.29 138.8C1234.93 143.664 1236.26 149.339 1236.26 155.824C1236.26 157.019 1236.21 158.128 1236.13 159.152C1236.04 160.176 1235.92 161.2 1235.75 162.224H1180.07V150.96H1223.33L1220 154.032C1220 147.888 1218.59 143.28 1215.78 140.208C1212.96 137.136 1209.04 135.6 1204 135.6C1198.54 135.6 1194.19 137.477 1190.95 141.232C1187.79 144.987 1186.21 150.405 1186.21 157.488C1186.21 164.485 1187.79 169.861 1190.95 173.616C1194.19 177.285 1198.75 179.12 1204.64 179.12C1208.05 179.12 1211.04 178.48 1213.6 177.2C1216.16 175.92 1218.04 173.957 1219.23 171.312H1234.47C1232.33 177.456 1228.71 182.32 1223.59 185.904C1218.55 189.488 1212.19 191.28 1204.51 191.28Z" fill="#242424"/>
<g clip-path="url(#clip0_1_93)">
<path d="M178.173 232.286C164.747 232.286 152.354 230.091 140.994 225.703C129.763 221.315 120.016 215.119 111.754 207.116C103.621 199.114 97.2957 189.627 92.7774 178.655C88.2591 167.684 86 155.68 86 142.643C86 129.477 88.2591 117.473 92.7774 106.631C97.2957 95.6595 103.621 86.1725 111.754 78.1697C120.016 70.167 129.763 63.9714 140.994 59.5828C152.354 55.1943 164.747 53 178.173 53C190.566 53 201.926 55.1943 212.254 59.5828C222.582 63.9714 231.489 70.167 238.976 78.1697C246.593 86.1725 252.403 95.6595 256.404 106.631C260.536 117.473 262.601 129.477 262.601 142.643H245.56C245.56 131.93 243.883 122.12 240.526 113.214C237.299 104.308 232.651 96.563 226.583 89.9801C220.645 83.3973 213.545 78.3633 205.283 74.8783C197.15 71.2642 188.113 69.4571 178.173 69.4571C167.2 69.4571 157.131 71.2642 147.965 74.8783C138.799 78.3633 130.86 83.3973 124.147 89.9801C117.434 96.434 112.206 104.179 108.462 113.214C104.848 122.12 103.04 131.93 103.04 142.643C103.04 153.356 104.848 163.166 108.462 172.072C112.206 180.978 117.434 188.659 124.147 195.112C130.86 201.695 138.799 206.794 147.965 210.408C157.131 214.021 167.2 215.829 178.173 215.829C182.95 215.829 188.049 215.119 193.471 213.699C199.022 212.409 203.669 210.73 207.413 208.665L216.32 221.831C210.898 224.929 204.637 227.446 197.537 229.382C190.437 231.318 183.982 232.286 178.173 232.286ZM167.329 188.529C159.196 188.529 151.967 186.593 145.641 182.721C139.445 178.72 134.604 173.234 131.118 166.264C127.633 159.294 125.89 151.356 125.89 142.449C125.89 133.414 127.633 125.476 131.118 118.635C134.604 111.794 139.445 106.437 145.641 102.565C151.967 98.5637 159.196 96.563 167.329 96.563C175.462 96.563 182.627 98.5637 188.823 102.565C195.149 106.437 200.055 111.794 203.54 118.635C207.155 125.476 208.962 133.414 208.962 142.449C208.962 151.356 207.155 159.294 203.54 166.264C200.055 173.234 195.149 178.72 188.823 182.721C182.627 186.593 175.462 188.529 167.329 188.529ZM173.332 170.136C178.367 170.136 182.821 168.974 186.693 166.651C190.566 164.328 193.6 161.101 195.794 156.97C197.989 152.711 199.086 147.935 199.086 142.643C199.086 137.093 197.925 132.317 195.601 128.316C193.406 124.185 190.308 120.958 186.306 118.635C182.433 116.183 177.915 114.956 172.751 114.956C167.587 114.956 163.069 116.183 159.196 118.635C155.323 120.958 152.225 124.185 149.902 128.316C147.707 132.317 146.61 137.028 146.61 142.449C146.61 147.742 147.771 152.517 150.095 156.777C152.419 161.036 155.582 164.328 159.584 166.651C163.585 168.974 168.168 170.136 173.332 170.136ZM224.066 194.338C219.16 194.338 214.771 193.37 210.898 191.434C207.155 189.497 204.25 186.722 202.185 183.108C200.119 179.494 199.086 175.235 199.086 170.33L217.095 169.555C217.095 172.782 217.87 175.17 219.419 176.719C220.968 178.268 222.969 179.042 225.422 179.042C229.423 179.042 232.909 177.493 235.878 174.396C238.976 171.298 241.365 167.038 243.043 161.617C244.721 156.067 245.56 149.742 245.56 142.643H262.601C262.601 152.711 260.923 161.617 257.566 169.362C254.339 177.106 249.82 183.237 244.011 187.755C238.202 192.144 231.553 194.338 224.066 194.338ZM199.086 170.33L198.118 98.6928H217.095V169.555L199.086 170.33Z" fill="#3C6476"/>
</g>
<defs>
<clipPath id="clip0_1_93">
<rect width="177" height="180" fill="white" transform="translate(86 53)"/>
</clipPath>
</defs>
</svg>
