<svg width="900" height="300" viewBox="0 0 900 300" fill="none" xmlns="http://www.w3.org/2000/svg">
<path d="M40 5H860C879.33 5 895 20.67 895 40V260C895 279.33 879.33 295 860 295H40C20.67 295 5 279.33 5 260V40C5 20.67 20.67 5 40 5Z" fill="black"/>
<path d="M40 5H860C879.33 5 895 20.67 895 40V260C895 279.33 879.33 295 860 295H40C20.67 295 5 279.33 5 260V40C5 20.67 20.67 5 40 5Z" stroke="#DEDEDE" stroke-width="10"/>
<path d="M307.464 136V84.16H316.824V136H307.464ZM326.105 136V99.28H334.961V107.92H335.177V136H326.105ZM351.881 136V112.816C351.881 110.56 351.305 108.856 350.153 107.704C349.001 106.552 347.321 105.976 345.113 105.976C343.193 105.976 341.465 106.408 339.929 107.272C338.441 108.136 337.265 109.336 336.401 110.872C335.585 112.408 335.177 114.184 335.177 116.2L334.241 107.416C335.489 104.728 337.313 102.592 339.713 101.008C342.113 99.376 344.993 98.56 348.353 98.56C352.337 98.56 355.433 99.688 357.641 101.944C359.897 104.2 361.025 107.2 361.025 110.944V136H351.881ZM385.343 136.72C380.831 136.72 377.495 135.664 375.335 133.552C373.223 131.392 372.167 128.176 372.167 123.904V90.928L381.311 87.544V124.12C381.311 125.896 381.791 127.216 382.751 128.08C383.711 128.944 385.223 129.376 387.287 129.376C388.103 129.376 388.823 129.328 389.447 129.232C390.119 129.088 390.743 128.92 391.319 128.728V135.784C390.743 136.072 389.927 136.288 388.871 136.432C387.815 136.624 386.639 136.72 385.343 136.72ZM365.111 106.408V99.28H391.319V106.408H365.111ZM413.468 136.72C409.58 136.72 406.172 135.904 403.244 134.272C400.364 132.64 398.108 130.384 396.476 127.504C394.892 124.624 394.1 121.312 394.1 117.568C394.1 113.824 394.892 110.536 396.476 107.704C398.108 104.824 400.364 102.592 403.244 101.008C406.124 99.376 409.484 98.56 413.324 98.56C416.972 98.56 420.14 99.328 422.828 100.864C425.516 102.352 427.604 104.464 429.092 107.2C430.58 109.936 431.324 113.128 431.324 116.776C431.324 117.448 431.3 118.072 431.252 118.648C431.204 119.224 431.132 119.8 431.036 120.376H399.716V114.04H424.052L422.18 115.768C422.18 112.312 421.388 109.72 419.804 107.992C418.22 106.264 416.012 105.4 413.18 105.4C410.108 105.4 407.66 106.456 405.836 108.568C404.06 110.68 403.172 113.728 403.172 117.712C403.172 121.648 404.06 124.672 405.836 126.784C407.66 128.848 410.228 129.88 413.54 129.88C415.46 129.88 417.14 129.52 418.58 128.8C420.02 128.08 421.076 126.976 421.748 125.488H430.316C429.116 128.944 427.076 131.68 424.196 133.696C421.364 135.712 417.788 136.72 413.468 136.72ZM438.113 136V99.28H446.969V108.136H447.185V136H438.113ZM447.185 116.848L446.249 108.136C447.113 105.016 448.577 102.64 450.641 101.008C452.705 99.376 455.177 98.56 458.057 98.56C459.065 98.56 459.785 98.656 460.217 98.848V107.416C459.977 107.32 459.641 107.272 459.209 107.272C458.777 107.224 458.249 107.2 457.625 107.2C454.121 107.2 451.505 107.968 449.777 109.504C448.049 111.04 447.185 113.488 447.185 116.848ZM466.168 136V99.28H475.024V107.92H475.24V136H466.168ZM491.944 136V112.816C491.944 110.56 491.368 108.856 490.216 107.704C489.064 106.552 487.384 105.976 485.176 105.976C483.256 105.976 481.528 106.408 479.992 107.272C478.504 108.136 477.328 109.336 476.464 110.872C475.648 112.408 475.24 114.184 475.24 116.2L474.304 107.416C475.552 104.728 477.376 102.592 479.776 101.008C482.176 99.376 485.056 98.56 488.416 98.56C492.4 98.56 495.496 99.688 497.704 101.944C499.96 104.2 501.088 107.2 501.088 110.944V136H491.944ZM526.742 136.72C522.854 136.72 519.446 135.904 516.518 134.272C513.638 132.64 511.382 130.384 509.75 127.504C508.166 124.624 507.374 121.312 507.374 117.568C507.374 113.824 508.166 110.536 509.75 107.704C511.382 104.824 513.638 102.592 516.518 101.008C519.398 99.376 522.758 98.56 526.598 98.56C530.246 98.56 533.414 99.328 536.102 100.864C538.79 102.352 540.878 104.464 542.366 107.2C543.854 109.936 544.598 113.128 544.598 116.776C544.598 117.448 544.574 118.072 544.526 118.648C544.478 119.224 544.406 119.8 544.31 120.376H512.99V114.04H537.326L535.454 115.768C535.454 112.312 534.662 109.72 533.078 107.992C531.494 106.264 529.286 105.4 526.454 105.4C523.382 105.4 520.934 106.456 519.11 108.568C517.334 110.68 516.446 113.728 516.446 117.712C516.446 121.648 517.334 124.672 519.11 126.784C520.934 128.848 523.502 129.88 526.814 129.88C528.734 129.88 530.414 129.52 531.854 128.8C533.294 128.08 534.35 126.976 535.022 125.488H543.59C542.39 128.944 540.35 131.68 537.47 133.696C534.638 135.712 531.062 136.72 526.742 136.72ZM567.101 136.72C562.589 136.72 559.253 135.664 557.093 133.552C554.981 131.392 553.925 128.176 553.925 123.904V90.928L563.069 87.544V124.12C563.069 125.896 563.549 127.216 564.509 128.08C565.469 128.944 566.981 129.376 569.045 129.376C569.861 129.376 570.581 129.328 571.205 129.232C571.877 129.088 572.501 128.92 573.077 128.728V135.784C572.501 136.072 571.685 136.288 570.629 136.432C569.573 136.624 568.397 136.72 567.101 136.72ZM546.869 106.408V99.28H573.077V106.408H546.869ZM593.425 136V84.16H602.785V136H593.425ZM627.337 136V84.16H636.697V136H627.337ZM597.889 105.328H631.585V112.672H597.889V105.328ZM668.853 136C668.613 135.04 668.421 133.984 668.277 132.832C668.181 131.68 668.133 130.288 668.133 128.656H667.845V111.232C667.845 109.312 667.293 107.872 666.189 106.912C665.133 105.904 663.501 105.4 661.293 105.4C659.133 105.4 657.405 105.808 656.109 106.624C654.861 107.392 654.093 108.52 653.805 110.008H645.093C645.477 106.6 647.109 103.84 649.989 101.728C652.869 99.616 656.733 98.56 661.581 98.56C666.621 98.56 670.437 99.712 673.029 102.016C675.621 104.272 676.917 107.608 676.917 112.024V128.656C676.917 129.808 676.989 130.984 677.133 132.184C677.325 133.384 677.589 134.656 677.925 136H668.853ZM656.109 136.72C652.413 136.72 649.461 135.808 647.253 133.984C645.093 132.112 644.013 129.616 644.013 126.496C644.013 123.136 645.237 120.472 647.685 118.504C650.133 116.536 653.589 115.216 658.053 114.544L669.501 112.816V118.576L659.565 120.088C657.405 120.424 655.773 121.024 654.669 121.888C653.613 122.752 653.085 123.952 653.085 125.488C653.085 126.88 653.589 127.96 654.597 128.728C655.605 129.448 656.997 129.808 658.773 129.808C661.365 129.808 663.525 129.16 665.253 127.864C666.981 126.568 667.845 124.984 667.845 123.112L668.853 128.656C667.893 131.296 666.309 133.312 664.101 134.704C661.941 136.048 659.277 136.72 656.109 136.72ZM686.105 136V99.28H694.961V107.92H695.177V136H686.105ZM711.881 136V112.816C711.881 110.56 711.305 108.856 710.153 107.704C709.001 106.552 707.321 105.976 705.113 105.976C703.193 105.976 701.465 106.408 699.929 107.272C698.441 108.136 697.265 109.336 696.401 110.872C695.585 112.408 695.177 114.184 695.177 116.2L694.241 107.416C695.489 104.728 697.313 102.592 699.713 101.008C702.113 99.376 704.993 98.56 708.353 98.56C712.337 98.56 715.433 99.688 717.641 101.944C719.897 104.2 721.025 107.2 721.025 110.944V136H711.881ZM756.399 136V127.72L757.119 127.864C756.495 130.552 754.983 132.712 752.583 134.344C750.183 135.928 747.327 136.72 744.015 136.72C740.655 136.72 737.727 135.952 735.231 134.416C732.783 132.832 730.887 130.624 729.543 127.792C728.199 124.96 727.527 121.624 727.527 117.784C727.527 113.896 728.223 110.512 729.615 107.632C731.007 104.752 732.951 102.52 735.447 100.936C737.991 99.352 740.943 98.56 744.303 98.56C747.759 98.56 750.615 99.4 752.871 101.08C755.127 102.712 756.519 104.992 757.047 107.92L756.111 107.992V84.16H765.255V136H756.399ZM746.679 129.304C749.607 129.304 751.935 128.296 753.663 126.28C755.439 124.216 756.327 121.336 756.327 117.64C756.327 113.944 755.439 111.088 753.663 109.072C751.887 107.056 749.535 106.048 746.607 106.048C743.727 106.048 741.399 107.08 739.623 109.144C737.847 111.16 736.959 114.016 736.959 117.712C736.959 121.408 737.847 124.264 739.623 126.28C741.399 128.296 743.751 129.304 746.679 129.304ZM774.91 136V84.16H783.982V136H774.91ZM810.101 136.72C806.213 136.72 802.805 135.904 799.877 134.272C796.997 132.64 794.741 130.384 793.109 127.504C791.525 124.624 790.733 121.312 790.733 117.568C790.733 113.824 791.525 110.536 793.109 107.704C794.741 104.824 796.997 102.592 799.877 101.008C802.757 99.376 806.117 98.56 809.957 98.56C813.605 98.56 816.773 99.328 819.461 100.864C822.149 102.352 824.237 104.464 825.725 107.2C827.213 109.936 827.957 113.128 827.957 116.776C827.957 117.448 827.933 118.072 827.885 118.648C827.837 119.224 827.765 119.8 827.669 120.376H796.349V114.04H820.685L818.813 115.768C818.813 112.312 818.021 109.72 816.437 107.992C814.853 106.264 812.645 105.4 809.813 105.4C806.741 105.4 804.293 106.456 802.469 108.568C800.693 110.68 799.805 113.728 799.805 117.712C799.805 121.648 800.693 124.672 802.469 126.784C804.293 128.848 806.861 129.88 810.173 129.88C812.093 129.88 813.773 129.52 815.213 128.8C816.653 128.08 817.709 126.976 818.381 125.488H826.949C825.749 128.944 823.709 131.68 820.829 133.696C817.997 135.712 814.421 136.72 810.101 136.72ZM324.12 214.576C318.744 214.576 314.456 213.253 311.256 210.608C308.099 207.963 306.243 204.187 305.688 199.28H310.808C311.277 202.821 312.621 205.488 314.84 207.28C317.059 209.072 320.131 209.968 324.056 209.968C327.384 209.968 329.88 209.349 331.544 208.112C333.251 206.832 334.104 204.976 334.104 202.544C334.104 200.453 333.528 198.789 332.376 197.552C331.224 196.315 329.432 195.291 327 194.48L319.256 191.792C315.331 190.427 312.429 188.784 310.552 186.864C308.675 184.901 307.736 182.427 307.736 179.44C307.736 176.965 308.355 174.832 309.592 173.04C310.829 171.205 312.579 169.776 314.84 168.752C317.101 167.728 319.725 167.216 322.712 167.216C327.32 167.216 331.011 168.432 333.784 170.864C336.557 173.253 338.157 176.667 338.584 181.104H333.464C332.909 177.904 331.757 175.557 330.008 174.064C328.301 172.571 325.827 171.824 322.584 171.824C319.512 171.824 317.123 172.443 315.416 173.68C313.709 174.917 312.856 176.667 312.856 178.928C312.856 180.848 313.453 182.384 314.648 183.536C315.843 184.688 317.699 185.691 320.216 186.544L328.472 189.424C332.056 190.661 334.744 192.347 336.536 194.48C338.328 196.571 339.224 199.237 339.224 202.48C339.224 206.32 337.901 209.307 335.256 211.44C332.653 213.531 328.941 214.576 324.12 214.576ZM357.557 214.64C355.423 214.64 353.525 214.213 351.861 213.36C350.197 212.464 348.895 211.227 347.957 209.648C347.018 208.027 346.549 206.171 346.549 204.08V181.36H351.669V202.736C351.669 205.211 352.266 207.067 353.461 208.304C354.698 209.541 356.447 210.16 358.708 210.16C360.757 210.16 362.57 209.691 364.149 208.752C365.727 207.813 366.965 206.512 367.861 204.848C368.799 203.141 369.269 201.2 369.269 199.024L370.101 206.768C369.034 209.2 367.37 211.12 365.109 212.528C362.847 213.936 360.33 214.64 357.557 214.64ZM369.589 214V206.32H369.269V181.36H374.389V214H369.589ZM400.748 214.576C397.676 214.576 395.095 213.829 393.004 212.336C390.913 210.843 389.484 208.731 388.716 206L389.74 205.872V227.12H384.62V181.36H389.42V188.976L388.716 188.784C389.527 186.267 391.063 184.304 393.324 182.896C395.585 181.445 398.209 180.72 401.196 180.72C404.097 180.72 406.615 181.424 408.748 182.832C410.924 184.24 412.609 186.203 413.804 188.72C414.999 191.237 415.596 194.181 415.596 197.552C415.596 200.965 414.977 203.952 413.74 206.512C412.503 209.072 410.775 211.056 408.556 212.464C406.337 213.872 403.735 214.576 400.748 214.576ZM399.98 210.096C403.223 210.096 405.761 208.987 407.596 206.768C409.431 204.507 410.348 201.435 410.348 197.552C410.348 193.712 409.431 190.704 407.596 188.528C405.761 186.309 403.223 185.2 399.98 185.2C396.737 185.2 394.177 186.331 392.3 188.592C390.423 190.811 389.484 193.861 389.484 197.744C389.484 201.541 390.423 204.549 392.3 206.768C394.177 208.987 396.737 210.096 399.98 210.096ZM439.561 214.576C436.489 214.576 433.907 213.829 431.817 212.336C429.726 210.843 428.297 208.731 427.529 206L428.553 205.872V227.12H423.433V181.36H428.233V188.976L427.529 188.784C428.339 186.267 429.875 184.304 432.137 182.896C434.398 181.445 437.022 180.72 440.009 180.72C442.91 180.72 445.427 181.424 447.561 182.832C449.737 184.24 451.422 186.203 452.617 188.72C453.811 191.237 454.409 194.181 454.409 197.552C454.409 200.965 453.79 203.952 452.553 206.512C451.315 209.072 449.587 211.056 447.369 212.464C445.15 213.872 442.547 214.576 439.561 214.576ZM438.793 210.096C442.035 210.096 444.574 208.987 446.409 206.768C448.243 204.507 449.161 201.435 449.161 197.552C449.161 193.712 448.243 190.704 446.409 188.528C444.574 186.309 442.035 185.2 438.793 185.2C435.55 185.2 432.99 186.331 431.113 188.592C429.235 190.811 428.297 193.861 428.297 197.744C428.297 201.541 429.235 204.549 431.113 206.768C432.99 208.987 435.55 210.096 438.793 210.096ZM475.813 214.64C472.613 214.64 469.797 213.893 467.365 212.4C464.933 210.907 463.034 208.88 461.669 206.32C460.346 203.717 459.685 200.795 459.685 197.552C459.685 194.267 460.368 191.365 461.733 188.848C463.098 186.331 464.976 184.347 467.365 182.896C469.797 181.445 472.613 180.72 475.813 180.72C479.056 180.72 481.872 181.445 484.261 182.896C486.693 184.347 488.57 186.331 489.893 188.848C491.258 191.365 491.941 194.267 491.941 197.552C491.941 200.795 491.258 203.717 489.893 206.32C488.57 208.88 486.693 210.907 484.261 212.4C481.872 213.893 479.056 214.64 475.813 214.64ZM475.813 210.288C478.032 210.288 479.952 209.755 481.573 208.688C483.194 207.579 484.453 206.064 485.349 204.144C486.245 202.224 486.693 200.005 486.693 197.488C486.693 193.733 485.69 190.725 483.685 188.464C481.722 186.203 479.098 185.072 475.813 185.072C472.57 185.072 469.946 186.203 467.941 188.464C465.936 190.725 464.933 193.733 464.933 197.488C464.933 200.005 465.381 202.224 466.277 204.144C467.173 206.064 468.432 207.579 470.053 208.688C471.717 209.755 473.637 210.288 475.813 210.288ZM499.62 214V181.36H504.42V189.68H504.74V214H499.62ZM504.74 196.976L503.908 189.232C504.676 186.459 506.041 184.347 508.004 182.896C509.967 181.445 512.228 180.72 514.788 180.72C515.855 180.72 516.58 180.805 516.964 180.976V185.904C516.751 185.819 516.452 185.776 516.068 185.776C515.684 185.733 515.215 185.712 514.66 185.712C511.417 185.712 508.943 186.693 507.236 188.656C505.572 190.576 504.74 193.349 504.74 196.976ZM537.426 214.576C533.799 214.576 531.154 213.765 529.49 212.144C527.869 210.48 527.058 208.091 527.058 204.976V173.744L532.178 171.824V204.912C532.178 206.747 532.647 208.091 533.586 208.944C534.525 209.797 536.061 210.224 538.194 210.224C539.047 210.224 539.773 210.181 540.37 210.096C541.01 209.968 541.522 209.819 541.906 209.648V214C541.479 214.171 540.861 214.299 540.05 214.384C539.282 214.512 538.407 214.576 537.426 214.576ZM520.338 185.712V181.36H541.906V185.712H520.338ZM561.184 214.64C558.069 214.64 555.317 213.915 552.928 212.464C550.538 210.971 548.661 208.944 547.296 206.384C545.93 203.824 545.248 200.88 545.248 197.552C545.248 194.224 545.909 191.301 547.232 188.784C548.597 186.224 550.496 184.24 552.928 182.832C555.36 181.424 558.154 180.72 561.312 180.72C564.341 180.72 566.965 181.381 569.184 182.704C571.445 184.027 573.173 185.883 574.368 188.272C575.605 190.661 576.224 193.477 576.224 196.72C576.224 197.147 576.202 197.552 576.16 197.936C576.16 198.32 576.117 198.747 576.032 199.216H549.088V194.928H572.896L571.232 197.296C571.232 193.371 570.357 190.363 568.608 188.272C566.901 186.139 564.469 185.072 561.312 185.072C558.069 185.072 555.445 186.203 553.44 188.464C551.477 190.683 550.496 193.691 550.496 197.488C550.496 201.371 551.477 204.485 553.44 206.832C555.445 209.136 558.112 210.288 561.44 210.288C563.53 210.288 565.365 209.84 566.944 208.944C568.522 208.005 569.674 206.683 570.4 204.976H575.264C574.197 207.963 572.405 210.331 569.888 212.08C567.413 213.787 564.512 214.64 561.184 214.64ZM607.677 214V206.384L608.317 206.576C607.506 209.051 606.013 211.013 603.837 212.464C601.703 213.915 599.143 214.64 596.157 214.64C593.213 214.64 590.631 213.936 588.413 212.528C586.237 211.12 584.53 209.157 583.293 206.64C582.098 204.123 581.501 201.179 581.501 197.808C581.501 194.395 582.119 191.408 583.357 188.848C584.594 186.288 586.322 184.304 588.541 182.896C590.759 181.488 593.362 180.784 596.349 180.784C599.421 180.784 602.002 181.531 604.093 183.024C606.183 184.517 607.613 186.629 608.381 189.36L607.357 189.488V167.92H612.477V214H607.677ZM597.117 210.16C600.402 210.16 602.962 209.051 604.797 206.832C606.674 204.571 607.613 201.499 607.613 197.616C607.613 193.819 606.674 190.811 604.797 188.592C602.919 186.373 600.359 185.264 597.117 185.264C593.874 185.264 591.335 186.373 589.501 188.592C587.666 190.811 586.749 193.883 586.749 197.808C586.749 201.648 587.666 204.677 589.501 206.896C591.335 209.072 593.874 210.16 597.117 210.16Z" fill="#DEDEDE"/>
<g clip-path="url(#clip0_1_37)">
<path d="M167.173 239.286C153.747 239.286 141.354 237.091 129.994 232.703C118.763 228.315 109.016 222.119 100.754 214.116C92.6213 206.114 86.2957 196.627 81.7774 185.655C77.2591 174.684 75 162.68 75 149.643C75 136.477 77.2591 124.473 81.7774 113.631C86.2957 102.66 92.6213 93.1725 100.754 85.1697C109.016 77.167 118.763 70.9714 129.994 66.5828C141.354 62.1943 153.747 60 167.173 60C179.566 60 190.926 62.1943 201.254 66.5828C211.582 70.9714 220.489 77.167 227.976 85.1697C235.593 93.1725 241.403 102.66 245.404 113.631C249.536 124.473 251.601 136.477 251.601 149.643H234.56C234.56 138.93 232.883 129.12 229.526 120.214C226.299 111.308 221.651 103.563 215.583 96.9801C209.645 90.3973 202.545 85.3633 194.283 81.8783C186.15 78.2642 177.113 76.4571 167.173 76.4571C156.2 76.4571 146.131 78.2642 136.965 81.8783C127.799 85.3633 119.86 90.3973 113.147 96.9801C106.434 103.434 101.206 111.179 97.4624 120.214C93.8478 129.12 92.0404 138.93 92.0404 149.643C92.0404 160.356 93.8478 170.166 97.4624 179.072C101.206 187.978 106.434 195.659 113.147 202.112C119.86 208.695 127.799 213.794 136.965 217.408C146.131 221.021 156.2 222.829 167.173 222.829C171.95 222.829 177.049 222.119 182.471 220.699C188.022 219.409 192.669 217.73 196.413 215.665L205.32 228.831C199.898 231.929 193.637 234.446 186.537 236.382C179.437 238.318 172.982 239.286 167.173 239.286ZM156.329 195.529C148.196 195.529 140.967 193.593 134.641 189.721C128.445 185.72 123.604 180.234 120.118 173.264C116.633 166.294 114.89 158.356 114.89 149.449C114.89 140.414 116.633 132.476 120.118 125.635C123.604 118.794 128.445 113.437 134.641 109.565C140.967 105.564 148.196 103.563 156.329 103.563C164.462 103.563 171.627 105.564 177.823 109.565C184.149 113.437 189.055 118.794 192.54 125.635C196.155 132.476 197.962 140.414 197.962 149.449C197.962 158.356 196.155 166.294 192.54 173.264C189.055 180.234 184.149 185.72 177.823 189.721C171.627 193.593 164.462 195.529 156.329 195.529ZM162.332 177.136C167.367 177.136 171.821 175.974 175.693 173.651C179.566 171.328 182.6 168.101 184.794 163.97C186.989 159.711 188.086 154.935 188.086 149.643C188.086 144.093 186.925 139.317 184.601 135.316C182.406 131.185 179.308 127.958 175.306 125.635C171.433 123.183 166.915 121.956 161.751 121.956C156.587 121.956 152.069 123.183 148.196 125.635C144.323 127.958 141.225 131.185 138.902 135.316C136.707 139.317 135.61 144.028 135.61 149.449C135.61 154.742 136.771 159.517 139.095 163.777C141.419 168.036 144.582 171.328 148.584 173.651C152.585 175.974 157.168 177.136 162.332 177.136ZM213.066 201.338C208.16 201.338 203.771 200.37 199.898 198.434C196.155 196.497 193.25 193.722 191.185 190.108C189.119 186.494 188.086 182.235 188.086 177.33L206.095 176.555C206.095 179.782 206.87 182.17 208.419 183.719C209.968 185.268 211.969 186.042 214.422 186.042C218.423 186.042 221.909 184.493 224.878 181.396C227.976 178.298 230.365 174.038 232.043 168.617C233.721 163.067 234.56 156.742 234.56 149.643H251.601C251.601 159.711 249.923 168.617 246.566 176.362C243.339 184.106 238.82 190.237 233.011 194.755C227.202 199.144 220.553 201.338 213.066 201.338ZM188.086 177.33L187.118 105.693H206.095V176.555L188.086 177.33Z" fill="#7DD3FC"/>
</g>
<defs>
<clipPath id="clip0_1_37">
<rect width="177" height="180" fill="white" transform="translate(75 60)"/>
</clipPath>
</defs>
</svg>
